#!OML:ASF H:\ManfredETheater\Project 1\Capture day 1\Session 1\subject.ASF
:FULLY-SPECIFIED
:DEGREES
91
root 0.574524 17.1346 32.5952 -174.81 -5.38 178.441
lowerback 4.95711 -0.827273 -3.90462
upperback -2.9942 -1.34478 1.8241
thorax -5.7744 -0.489485 4.23516
lowerneck -19.1229 -0.109688 -1.84567
upperneck 26.0387 -0.115191 -1.12761
head 11.6919 -0.728624 -0.194915
rclavicle 8.48562e-015 -1.66979e-014
rhumerus -35.6359 -11.2526 -77.1826
rradius 30.6619
rwrist 1.8211
rhand -20.2037 -12.4474
rfingers 7.12502
rthumb 6.14312 -42.3383
lclavicle 8.48562e-015 -1.66979e-014
lhumerus -36.3237 4.95591 84.3955
lradius 32.8166
lwrist -14.15
lhand -8.74676 9.45322
lfingers 7.12502
lthumb 17.1902 38.7128
rfemur -31.5326 -2.90737 15.6011
rtibia 36.4352
rfoot -6.39386 -5.24375
rtoes 12.1025
lfemur -10.817 -4.76605 -25.4736
ltibia 32.2736
lfoot -23.2135 -0.0956664
ltoes 9.14824
92
root 0.573858 17.1329 32.5883 -174.782 -5.35461 178.45
lowerback 4.9894 -0.82734 -3.898
upperback -2.99366 -1.34522 1.82578
thorax -5.79237 -0.489353 4.2341
lowerneck -19.1158 -0.107661 -1.84609
upperneck 26.0251 -0.11108 -1.12964
head 11.6853 -0.726572 -0.194751
rclavicle 1.22625e-014 -3.26007e-014
rhumerus -35.6624 -11.2585 -77.1811
rradius 30.6657
rwrist 1.8247
rhand -20.1992 -12.4617
rfingers 7.12502
rthumb 6.14751 -42.3525
lclavicle 1.22625e-014 -3.26007e-014
lhumerus -36.344 4.94151 84.4075
lradius 32.831
lwrist -14.1394
lhand -8.73735 9.46074
lfingers 7.12502
lthumb 17.1992 38.7196
rfemur -31.58 -2.92773 15.6215
rtibia 36.5004
rfoot -6.45352 -5.20855
rtoes 12.1558
lfemur -10.8312 -4.78011 -25.4689
ltibia 32.294
lfoot -23.2539 -0.0470001
ltoes 9.14646
93
root 0.573288 17.1311 32.5811 -174.754 -5.33297 178.457
lowerback 5.02043 -0.829249 -3.89276
upperback -2.98915 -1.34804 1.82664
thorax -5.80516 -0.490509 4.23306
lowerneck -19.1094 -0.105248 -1.84535
upperneck 26.0072 -0.106049 -1.13237
head 11.6771 -0.723811 -0.194826
rclavicle 9.98893e-015 -2.0276e-014
rhumerus -35.6843 -11.2648 -77.182
rradius 30.6723
rwrist 1.82591
rhand -20.1925 -12.4653
rfingers 7.12502
rthumb 6.15401 -42.3559
lclavicle 9.98893e-015 -2.0276e-014
lhumerus -36.3585 4.92567 84.4198
lradius 32.8461
lwrist -14.1286
lhand -8.73165 9.46647
lfingers 7.12502
lthumb 17.2047 38.7248
rfemur -31.6287 -2.95447 15.6405
rtibia 36.572
rfoot -6.5171 -5.17101
rtoes 12.207
lfemur -10.8443 -4.793 -25.4659
ltibia 32.3146
lfoot -23.2958 -0.00200782
ltoes 9.13395
94
root 0.572812 17.1291 32.5735 -174.725 -5.31281 178.458
lowerback 5.0464 -0.831306 -3.89003
upperback -2.97571 -1.35084 1.82353
thorax -5.80566 -0.491987 4.2289
lowerneck -19.1165 -0.104389 -1.84059
upperneck 25.9862 -0.102561 -1.13591
head 11.6704 -0.720895 -0.196061
rclavicle -3.49116e-015 -6.75868e-015
rhumerus -35.6935 -11.2808 -77.1869
rradius 30.6807
rwrist 1.82698
rhand -20.1814 -12.4537
rfingers 7.12502
rthumb 6.16471 -42.344
lclavicle -3.49116e-015 -6.75868e-015
lhumerus -36.357 4.90284 84.4324
lradius 32.8613
lwrist -14.1154
lhand -8.73149 9.46911
lfingers 7.12502
lthumb 17.2049 38.7274
rfemur -31.6793 -2.98834 15.6548
rtibia 36.6512
rfoot -6.58441 -5.12858
rtoes 12.2448
lfemur -10.8553 -4.80194 -25.4686
ltibia 32.3339
lfoot -23.3382 0.037116
ltoes 9.11598
95
root 0.572448 17.127 32.5655 -174.697 -5.29287 178.455
lowerback 5.0725 -0.832854 -3.89013
upperback -2.9564 -1.35298 1.81837
thorax -5.80008 -0.493242 4.22401
lowerneck -19.1345 -0.104937 -1.83429
upperneck 25.9629 -0.100105 -1.13984
head 11.665 -0.717908 -0.197804
rclavicle 2.34193e-014 -1.98785e-015
rhumerus -35.6931 -11.3027 -77.1936
rradius 30.6884
rwrist 1.82845
rhand -20.1717 -12.4375
rfingers 7.12502
rthumb 6.17409 -42.3275
lclavicle 2.34193e-014 -1.98785e-015
lhumerus -36.3457 4.87462 84.4468
lradius 32.8776
lwrist -14.098
lhand -8.72887 9.4739
lfingers 7.12502
lthumb 17.2074 38.732
rfemur -31.7325 -3.0265 15.6659
rtibia 36.7379
rfoot -6.65543 -5.08239
rtoes 12.2771
lfemur -10.864 -4.80773 -25.4751
ltibia 32.3514
lfoot -23.3795 0.0725113
ltoes 9.09364
96
root 0.572211 17.1247 32.5572 -174.668 -5.26945 178.446
lowerback 5.09609 -0.834578 -3.89745
upperback -2.93398 -1.35574 1.81208
thorax -5.78961 -0.494674 4.22192
lowerneck -19.148 -0.105365 -1.82765
upperneck 25.932 -0.0967789 -1.14535
head 11.6558 -0.7144 -0.199934
rclavicle -4.53478e-015 1.70955e-014
rhumerus -35.6895 -11.3204 -77.203
rradius 30.6981
rwrist 1.82974
rhand -20.1674 -12.4283
rfingers 7.12502
rthumb 6.17824 -42.3182
lclavicle -4.53478e-015 1.70955e-014
lhumerus -36.3328 4.84611 84.4614
lradius 32.8964
lwrist -14.0774
lhand -8.72471 9.4771
lfingers 7.12502
lthumb 17.2114 38.7349
rfemur -31.79 -3.0668 15.6713
rtibia 36.8326
rfoot -6.72836 -5.03095
rtoes 12.309
lfemur -10.8707 -4.80775 -25.4881
ltibia 32.3666
lfoot -23.4205 0.10416
ltoes 9.06795
97
root 0.572161 17.1223 32.5484 -174.637 -5.24561 178.431
lowerback 5.12012 -0.837043 -3.91114
upperback -2.90951 -1.35991 1.80505
thorax -5.77699 -0.496632 4.22276
lowerneck -19.1572 -0.105587 -1.8216
upperneck 25.8939 -0.0926372 -1.15086
head 11.6429 -0.7103 -0.201726
rclavicle -1.68967e-015 3.57812e-015
rhumerus -35.6832 -11.3355 -77.2139
rradius 30.708
rwrist 1.83188
rhand -20.1639 -12.4171
rfingers 7.12502
rthumb 6.18159 -42.3069
lclavicle -1.68967e-015 3.57812e-015
lhumerus -36.3193 4.8172 84.4763
lradius 32.9179
lwrist -14.0531
lhand -8.72425 9.47507
lfingers 7.12502
lthumb 17.2119 38.7328
rfemur -31.8513 -3.109 15.6721
rtibia 36.9351
rfoot -6.80324 -4.97768
rtoes 12.324
lfemur -10.8753 -4.80243 -25.5054
ltibia 32.3792
lfoot -23.4609 0.129838
ltoes 9.03658
98
root 0.572237 17.1198 32.5393 -174.606 -5.21831 178.411
lowerback 5.14486 -0.840195 -3.93203
upperback -2.88709 -1.36564 1.79863
thorax -5.76666 -0.498994 4.22855
lowerneck -19.1467 -0.103989 -1.81702
upperneck 25.8436 -0.0858356 -1.15728
head 11.6215 -0.705105 -0.203014
rclavicle -1.21756e-015 -1.07344e-014
rhumerus -35.6819 -11.3404 -77.2254
rradius 30.7202
rwrist 1.83393
rhand -20.1657 -12.4255
rfingers 7.12502
rthumb 6.1798 -42.3154
lclavicle -1.21756e-015 -1.07344e-014
lhumerus -36.3167 4.79232 84.4907
lradius 32.9454
lwrist -14.0273
lhand -8.7292 9.46687
lfingers 7.12502
lthumb 17.2071 38.725
rfemur -31.9178 -3.154 15.6689
rtibia 37.0458
rfoot -6.88085 -4.91872
rtoes 12.3417
lfemur -10.8784 -4.79092 -25.5273
ltibia 32.3894
lfoot -23.5017 0.150056
ltoes 9.01582
